<svg xmlns="http://www.w3.org/2000/svg" id="Layer_1" data-name="Layer 1" viewBox="0 0 40 40"><defs><style>.cls-1{fill:#2db5f9}</style></defs><title>icon-tutorials</title><path d="M29,32.18H11a1.89,1.89,0,0,1-1.64-2.83l7.31-12.83V9.92a.42.42,0,0,1,.42-.42h5.88a.42.42,0,0,1,.42.42v6.61l7.31,12.83A1.89,1.89,0,0,1,29,32.18ZM17.48,10.34v6.3a.42.42,0,0,1-.05.21L10.06,29.77A1.05,1.05,0,0,0,11,31.34H29a1.05,1.05,0,0,0,.91-1.57L22.58,16.85a.42.42,0,0,1-.05-.21v-6.3Z" class="cls-1"/><path d="M26.72,23.78H13.28a.42.42,0,1,1,0-.84H26.72a.42.42,0,1,1,0,.84Z" class="cls-1"/><path d="M24.62,10.34H15.38a1.26,1.26,0,0,1,0-2.52h9.24a1.26,1.26,0,0,1,0,2.52ZM15.38,8.66a.42.42,0,0,0,0,.84h9.24a.42.42,0,1,0,0-.84Z" class="cls-1"/></svg>